<mxfile host="app.diagrams.net" modified="2021-06-14T03:25:45.450Z" agent="5.0 (Macintosh; Intel Mac OS X 10_15_7) AppleWebKit/537.36 (KHTML, like Gecko) Chrome/91.0.4472.77 Safari/537.36" etag="ZoH6erGiUJWD859Q_mM4" version="14.6.6" type="github">
  <diagram id="_80Droh6SFB0bZWpMth9" name="Page-1">
    <mxGraphModel dx="2474" dy="834" grid="1" gridSize="10" guides="1" tooltips="1" connect="1" arrows="1" fold="1" page="1" pageScale="1" pageWidth="1200" pageHeight="1600" math="0" shadow="0">
      <root>
        <mxCell id="0" />
        <mxCell id="1" parent="0" />
        <mxCell id="_7y1i-Hstqigx7MCO25U-2" value="" style="whiteSpace=wrap;html=1;aspect=fixed;" vertex="1" parent="1">
          <mxGeometry x="70" y="50" width="230" height="230" as="geometry" />
        </mxCell>
        <mxCell id="_7y1i-Hstqigx7MCO25U-7" value="&lt;h1&gt;&lt;span style=&quot;font-size: 15px&quot;&gt;Users&lt;/span&gt;&lt;/h1&gt;&lt;div&gt;&lt;ul&gt;&lt;li&gt;&lt;span&gt;id (PK)&lt;/span&gt;&lt;/li&gt;&lt;li&gt;&lt;span&gt;first name&lt;/span&gt;&lt;/li&gt;&lt;li&gt;&lt;span&gt;last name&amp;nbsp;&lt;/span&gt;&lt;/li&gt;&lt;li&gt;&lt;span&gt;email&lt;/span&gt;&lt;/li&gt;&lt;li&gt;username&lt;/li&gt;&lt;li&gt;password&lt;/li&gt;&lt;li&gt;re-type password&lt;/li&gt;&lt;/ul&gt;&lt;/div&gt;" style="text;html=1;strokeColor=none;fillColor=none;spacing=5;spacingTop=-20;whiteSpace=wrap;overflow=hidden;rounded=0;" vertex="1" parent="1">
          <mxGeometry x="90" y="60" width="190" height="200" as="geometry" />
        </mxCell>
        <mxCell id="_7y1i-Hstqigx7MCO25U-10" value="" style="edgeStyle=entityRelationEdgeStyle;fontSize=12;html=1;endArrow=ERoneToMany;entryX=-0.009;entryY=0.339;entryDx=0;entryDy=0;entryPerimeter=0;" edge="1" parent="1" target="_7y1i-Hstqigx7MCO25U-11">
          <mxGeometry width="100" height="100" relative="1" as="geometry">
            <mxPoint x="300" y="190" as="sourcePoint" />
            <mxPoint x="400" y="90" as="targetPoint" />
          </mxGeometry>
        </mxCell>
        <mxCell id="_7y1i-Hstqigx7MCO25U-11" value="" style="whiteSpace=wrap;html=1;aspect=fixed;" vertex="1" parent="1">
          <mxGeometry x="510" y="45" width="230" height="230" as="geometry" />
        </mxCell>
        <mxCell id="_7y1i-Hstqigx7MCO25U-12" value="&lt;h1&gt;&lt;span style=&quot;font-size: 15px&quot;&gt;Reviews&lt;/span&gt;&lt;/h1&gt;&lt;div&gt;&lt;ul&gt;&lt;li&gt;&lt;span&gt;id (PK)&lt;/span&gt;&lt;/li&gt;&lt;li&gt;&lt;span&gt;Title&lt;/span&gt;&lt;/li&gt;&lt;li&gt;&lt;span&gt;Rating&lt;/span&gt;&lt;/li&gt;&lt;li&gt;&lt;span&gt;Review Text&lt;/span&gt;&lt;/li&gt;&lt;li&gt;&lt;span&gt;User id (FK)&lt;/span&gt;&lt;/li&gt;&lt;/ul&gt;&lt;/div&gt;" style="text;html=1;strokeColor=none;fillColor=none;spacing=5;spacingTop=-20;whiteSpace=wrap;overflow=hidden;rounded=0;" vertex="1" parent="1">
          <mxGeometry x="530" y="65" width="190" height="200" as="geometry" />
        </mxCell>
        <mxCell id="_7y1i-Hstqigx7MCO25U-13" value="" style="whiteSpace=wrap;html=1;aspect=fixed;" vertex="1" parent="1">
          <mxGeometry x="500" y="300" width="250" height="250" as="geometry" />
        </mxCell>
        <mxCell id="_7y1i-Hstqigx7MCO25U-14" value="&lt;h1&gt;&lt;span style=&quot;font-size: 15px&quot;&gt;Posts&lt;/span&gt;&lt;/h1&gt;&lt;div&gt;&lt;ul&gt;&lt;li&gt;&lt;span&gt;id (PK)&lt;/span&gt;&lt;/li&gt;&lt;li&gt;Emoji Rank&lt;/li&gt;&lt;ul&gt;&lt;li&gt;í ½í´¥ High Activity&lt;/li&gt;&lt;li&gt;í ¾í·Š Chill vibe&lt;/li&gt;&lt;li&gt;í ½í²€ Little to no activity&lt;/li&gt;&lt;li&gt;í ¼í¼ˆ LGBTQ friendly&amp;nbsp;&lt;/li&gt;&lt;li&gt;í ½í¸Ž College bar&lt;/li&gt;&lt;/ul&gt;&lt;li&gt;Post text&lt;/li&gt;&lt;li&gt;Video or Photo (optional)&lt;/li&gt;&lt;li&gt;User id (FK)&lt;/li&gt;&lt;/ul&gt;&lt;/div&gt;" style="text;html=1;strokeColor=none;fillColor=none;spacing=5;spacingTop=-20;whiteSpace=wrap;overflow=hidden;rounded=0;" vertex="1" parent="1">
          <mxGeometry x="521" y="312.5" width="208" height="225" as="geometry" />
        </mxCell>
        <mxCell id="_7y1i-Hstqigx7MCO25U-15" value="" style="edgeStyle=entityRelationEdgeStyle;fontSize=12;html=1;endArrow=ERoneToMany;exitX=1.009;exitY=0.935;exitDx=0;exitDy=0;exitPerimeter=0;entryX=-0.004;entryY=0.404;entryDx=0;entryDy=0;entryPerimeter=0;" edge="1" parent="1" source="_7y1i-Hstqigx7MCO25U-2" target="_7y1i-Hstqigx7MCO25U-13">
          <mxGeometry width="100" height="100" relative="1" as="geometry">
            <mxPoint x="340" y="500" as="sourcePoint" />
            <mxPoint x="440" y="400" as="targetPoint" />
          </mxGeometry>
        </mxCell>
        <mxCell id="_7y1i-Hstqigx7MCO25U-16" value="" style="whiteSpace=wrap;html=1;aspect=fixed;" vertex="1" parent="1">
          <mxGeometry x="500" y="570" width="250" height="250" as="geometry" />
        </mxCell>
        <mxCell id="_7y1i-Hstqigx7MCO25U-17" value="&lt;h1&gt;&lt;span style=&quot;font-size: 15px&quot;&gt;Followers&lt;/span&gt;&lt;/h1&gt;&lt;div&gt;&lt;ul&gt;&lt;li&gt;&lt;span&gt;id (PK)&lt;/span&gt;&lt;/li&gt;&lt;li&gt;User id (FK)&lt;/li&gt;&lt;li&gt;Follower id (FK)&lt;/li&gt;&lt;/ul&gt;&lt;/div&gt;" style="text;html=1;strokeColor=none;fillColor=none;spacing=5;spacingTop=-20;whiteSpace=wrap;overflow=hidden;rounded=0;" vertex="1" parent="1">
          <mxGeometry x="530" y="595" width="190" height="200" as="geometry" />
        </mxCell>
        <mxCell id="_7y1i-Hstqigx7MCO25U-18" value="" style="whiteSpace=wrap;html=1;aspect=fixed;" vertex="1" parent="1">
          <mxGeometry x="30" y="695" width="250" height="250" as="geometry" />
        </mxCell>
        <mxCell id="_7y1i-Hstqigx7MCO25U-19" value="&lt;h1&gt;&lt;span style=&quot;font-size: 15px&quot;&gt;Following&lt;/span&gt;&lt;/h1&gt;&lt;div&gt;&lt;ul&gt;&lt;li&gt;&lt;span&gt;id (PK)&lt;/span&gt;&lt;/li&gt;&lt;li&gt;User id (FK)&lt;/li&gt;&lt;li&gt;Following id (FK)&lt;/li&gt;&lt;/ul&gt;&lt;/div&gt;" style="text;html=1;strokeColor=none;fillColor=none;spacing=5;spacingTop=-20;whiteSpace=wrap;overflow=hidden;rounded=0;" vertex="1" parent="1">
          <mxGeometry x="60" y="720" width="190" height="200" as="geometry" />
        </mxCell>
        <mxCell id="_7y1i-Hstqigx7MCO25U-20" value="" style="edgeStyle=entityRelationEdgeStyle;fontSize=12;html=1;endArrow=ERoneToMany;entryX=-0.004;entryY=0.292;entryDx=0;entryDy=0;entryPerimeter=0;exitX=0.557;exitY=1.013;exitDx=0;exitDy=0;exitPerimeter=0;" edge="1" parent="1" source="_7y1i-Hstqigx7MCO25U-2" target="_7y1i-Hstqigx7MCO25U-16">
          <mxGeometry width="100" height="100" relative="1" as="geometry">
            <mxPoint x="200" y="330" as="sourcePoint" />
            <mxPoint x="490" y="640" as="targetPoint" />
          </mxGeometry>
        </mxCell>
        <mxCell id="_7y1i-Hstqigx7MCO25U-24" value="" style="whiteSpace=wrap;html=1;aspect=fixed;" vertex="1" parent="1">
          <mxGeometry x="-270" y="55" width="220" height="220" as="geometry" />
        </mxCell>
        <mxCell id="_7y1i-Hstqigx7MCO25U-25" value="&lt;h1&gt;&lt;span style=&quot;font-size: 15px&quot;&gt;Profile&lt;/span&gt;&lt;/h1&gt;&lt;div&gt;&lt;ul&gt;&lt;li&gt;&lt;span&gt;id (PK)&lt;/span&gt;&lt;/li&gt;&lt;li&gt;bio&lt;/li&gt;&lt;li&gt;profile image&lt;/li&gt;&lt;li&gt;posts&lt;/li&gt;&lt;li&gt;reviews&lt;/li&gt;&lt;li&gt;User id (FK)&lt;/li&gt;&lt;/ul&gt;&lt;/div&gt;" style="text;html=1;strokeColor=none;fillColor=none;spacing=5;spacingTop=-20;whiteSpace=wrap;overflow=hidden;rounded=0;" vertex="1" parent="1">
          <mxGeometry x="-255" y="65" width="190" height="200" as="geometry" />
        </mxCell>
        <mxCell id="_7y1i-Hstqigx7MCO25U-27" value="" style="edgeStyle=entityRelationEdgeStyle;fontSize=12;html=1;endArrow=ERoneToMany;exitX=0.135;exitY=1;exitDx=0;exitDy=0;exitPerimeter=0;" edge="1" parent="1" source="_7y1i-Hstqigx7MCO25U-2">
          <mxGeometry width="100" height="100" relative="1" as="geometry">
            <mxPoint x="60" y="350" as="sourcePoint" />
            <mxPoint x="30" y="720" as="targetPoint" />
          </mxGeometry>
        </mxCell>
        <mxCell id="_7y1i-Hstqigx7MCO25U-28" value="" style="edgeStyle=entityRelationEdgeStyle;fontSize=12;html=1;endArrow=ERmandOne;startArrow=ERmandOne;exitX=1.005;exitY=0.205;exitDx=0;exitDy=0;exitPerimeter=0;entryX=0;entryY=0.457;entryDx=0;entryDy=0;entryPerimeter=0;" edge="1" parent="1" source="_7y1i-Hstqigx7MCO25U-24" target="_7y1i-Hstqigx7MCO25U-2">
          <mxGeometry width="100" height="100" relative="1" as="geometry">
            <mxPoint x="-30" y="200" as="sourcePoint" />
            <mxPoint x="70" y="100" as="targetPoint" />
          </mxGeometry>
        </mxCell>
      </root>
    </mxGraphModel>
  </diagram>
</mxfile>
